<svg width="24" height="25" viewBox="0 0 24 25" fill="none" xmlns="http://www.w3.org/2000/svg">
<path fill-rule="evenodd" clip-rule="evenodd" d="M4 9.34901H5.99978C6.00007 9.71887 6.20262 10.0749 6.55279 10.2515C7.04676 10.5008 7.64744 10.2987 7.89443 9.80027L8.11803 9.34901H15.882L16.1056 9.80027C16.3526 10.2987 16.9532 10.5008 17.4472 10.2515C17.7974 10.0749 17.9999 9.71887 18.0002 9.34901H20V11.3671H4V9.34901ZM17.118 7.3309H20C21.1046 7.3309 22 8.23444 22 9.34901V11.3671C22 12.2147 21.4821 12.9403 20.7482 13.2392C20.7516 13.2875 20.7534 13.3361 20.7534 13.3852C20.7534 13.5325 20.7374 13.6793 20.7058 13.823L19.1502 20.8864C18.9469 21.8097 18.1352 22.4667 17.1978 22.4667H6.80217C5.86477 22.4667 5.05315 21.8097 4.8498 20.8864L3.29424 13.823C3.25095 13.6264 3.23767 13.4301 3.25134 13.2391C2.51767 12.94 2 12.2146 2 11.3671V9.34901C2 8.23444 2.89543 7.3309 4 7.3309H6.88197L9.10557 2.84342C9.35256 2.34497 9.95323 2.14293 10.4472 2.39216C10.9412 2.64138 11.1414 3.24749 10.8944 3.74595L9.11803 7.3309H14.882L13.1056 3.74595C12.8586 3.24749 13.0588 2.64138 13.5528 2.39216C14.0468 2.14293 14.6474 2.34497 14.8944 2.84342L17.118 7.3309ZM6.80217 20.4486L5.24662 13.3852H18.7534L17.1978 20.4486H6.80217Z" fill="#D1333B"/>
</svg>
