<svg width="70" height="70" viewBox="0 0 70 70" fill="none" xmlns="http://www.w3.org/2000/svg">
<rect width="70" height="70" fill="#F5F5F5"/>
<g id="E-Commerce (&#208;&#148;&#208;&#151;5)">
<rect width="1440" height="2229" transform="translate(-404 -1328)" fill="white"/>
<g id="2 screen">
<rect id="Rectangle 4" x="-404" y="-579" width="1440" height="804" fill="#FFEEEF"/>
<g id="Cards">
<g id="Card">
<rect id="Rectangle 5" x="-284" y="-400" width="384" height="500" fill="white"/>
<g id="Small button">
<rect id="Rectangle 7" width="70" height="70" fill="#D1333B"/>
<path id="Arrow 2" d="M50.7071 35.7071C51.0976 35.3166 51.0976 34.6834 50.7071 34.2929L44.3431 27.9289C43.9526 27.5384 43.3195 27.5384 42.9289 27.9289C42.5384 28.3195 42.5384 28.9526 42.9289 29.3431L48.5858 35L42.9289 40.6569C42.5384 41.0474 42.5384 41.6805 42.9289 42.0711C43.3195 42.4616 43.9526 42.4616 44.3431 42.0711L50.7071 35.7071ZM20 36H50V34H20V36Z" fill="#FDFDFD"/>
</g>
</g>
</g>
</g>
</g>
</svg>
